:FULLY-SPECIFIED
:DEGREES
104
root 10.7042 16.6348 -1.33892 230.922 -85.9889 -217.583
lowerback -0.0020119 -0.176401 -5.9717
upperback 1.4373 -0.206692 -1.9077
thorax 1.49493 -0.184413 1.3792
lowerneck -20.0319 0.157701 -1.57092
upperneck 36.0032 -2.28148 4.9008
head 16.365 -0.821494 1.8695
rclavicle 1.35174e-014 7.55382e-015
rhumerus -30.5198 2.03567 -87.8475
rradius 38.1886
rwrist 23.3081
rhand -20.1428 -8.02887
rfingers 7.12502
rthumb 6.20194 -37.9181
lclavicle 1.35174e-014 7.55382e-015
lhumerus -28.7866 -9.73678 84.4409
lradius 29.9136
lwrist 5.96483
lhand -27.8464 5.63194
lfingers 7.12502
lthumb -1.23754 35.6081
rfemur -38.6395 -6.78401 16.2784
rtibia 72.8311
rfoot -1.46284 6.28427
rtoes -13.9883
lfemur -28.6254 1.22793 -25.6544
ltibia 33.38
lfoot -13.7587 -0.40224
ltoes -5.61474
105
root 10.7278 16.6338 -1.33038 232.678 -86.0794 -219.446
lowerback 0.120608 -0.342022 -5.99388
upperback 1.45088 -0.435525 -1.78516
thorax 1.45687 -0.29805 1.51518
lowerneck -20.0696 0.209762 -1.61087
upperneck 35.8524 -2.1459 4.85722
head 16.2892 -0.773105 1.88094
rclavicle -3.18055e-015 -4.69132e-014
rhumerus -30.9059 1.69196 -87.5343
rradius 37.3969
rwrist 23.4513
rhand -19.666 -7.92166
rfingers 7.12502
rthumb 6.66225 -37.7969
lclavicle -3.18055e-015 -4.69132e-014
lhumerus -28.2558 -10.0624 84.3484
lradius 31.1629
lwrist 7.23075
lhand -28.5047 5.58959
lfingers 7.12502
lthumb -1.87332 35.5611
rfemur -39.9952 -6.82871 16.5089
rtibia 72.0148
rfoot -2.00903 6.17435
rtoes -13.5464
lfemur -27.5934 0.956559 -25.7031
ltibia 33.2415
lfoot -14.3603 -0.377192
ltoes -5.93263
106
root 10.7524 16.627 -1.3263 234.531 -86.1238 -221.376
lowerback 0.249502 -0.463633 -6.04024
upperback 1.41277 -0.608756 -1.71266
thorax 1.3588 -0.381752 1.61487
lowerneck -20.0511 0.234918 -1.64608
upperneck 35.7445 -2.09955 4.90212
head 16.2286 -0.751122 1.9132
rclavicle 1.03368e-014 6.36111e-015
rhumerus -31.3946 1.31984 -87.2462
rradius 36.6977
rwrist 23.38
rhand -19.1049 -8.08736
rfingers 7.12502
rthumb 7.20385 -37.9447
lclavicle 1.03368e-014 6.36111e-015
lhumerus -27.7234 -10.4791 84.1998
lradius 32.3948
lwrist 8.5636
lhand -29.0755 5.64908
lfingers 7.12502
lthumb -2.42459 35.615
rfemur -41.2963 -6.7942 16.7432
rtibia 70.9672
rfoot -2.64887 5.95989
rtoes -13.7489
lfemur -26.5864 0.771514 -25.7844
ltibia 33.1014
lfoot -14.7953 -0.373673
ltoes -6.97228
107
root 10.7774 16.6201 -1.32284 237.697 -86.1332 -224.608
lowerback 0.386608 -0.617915 -6.19246
upperback 1.41502 -0.824501 -1.62103
thorax 1.30382 -0.489998 1.79305
lowerneck -20.1227 0.258154 -1.69787
upperneck 35.5901 -1.99209 4.83801
head 16.1612 -0.717277 1.91261
rclavicle 7.95139e-015 1.39149e-014
rhumerus -31.7269 0.839659 -86.8575
rradius 35.9447
rwrist 23.2651
rhand -18.555 -8.08065
rfingers 7.12502
rthumb 7.73471 -37.9192
lclavicle 7.95139e-015 1.39149e-014
lhumerus -27.1383 -10.7502 84.0352
lradius 33.6474
lwrist 9.60245
lhand -29.564 5.58501
lfingers 7.12502
lthumb -2.89638 35.5451
rfemur -42.5226 -6.73845 16.8721
rtibia 69.6764
rfoot -3.24466 5.65604
rtoes -13.2975
lfemur -25.5627 0.586394 -25.9597
ltibia 32.9193
lfoot -15.3597 -0.526775
ltoes -6.68035
108
root 10.7994 16.6143 -1.32093 239.972 -86.2729 -226.925
lowerback 0.479072 -0.78383 -6.1811
upperback 1.39812 -1.05256 -1.51448
thorax 1.25389 -0.601761 1.89557
lowerneck -20.064 0.299513 -1.7372
upperneck 35.3964 -1.88926 4.83497
head 16.0444 -0.677605 1.93326
rclavicle -2.06736e-014 -2.22639e-014
rhumerus -32.1602 0.444487 -86.522
rradius 35.2842
rwrist 22.9991
rhand -18.2282 -8.43074
rfingers 7.12502
rthumb 8.05007 -38.2574
lclavicle -2.06736e-014 -2.22639e-014
lhumerus -26.5583 -10.9207 83.7757
lradius 34.9001
lwrist 10.5966
lhand -29.9112 5.70661
lfingers 7.12502
lthumb -3.23175 35.6619
rfemur -43.6011 -6.69814 17.1694
rtibia 68.099
rfoot -3.91617 5.32016
rtoes -13.6706
lfemur -24.5369 0.424849 -25.9623
ltibia 32.6775
lfoot -15.8449 -0.610319
ltoes -7.0394
109
root 10.8255 16.6087 -1.32063 243.197 -86.3977 -230.04
lowerback 0.488593 -0.931122 -6.14946
upperback 1.33696 -1.25096 -1.44376
thorax 1.20198 -0.697387 1.94968
lowerneck -20.0716 0.331124 -1.74231
upperneck 35.2436 -1.81615 4.83055
head 15.9661 -0.644623 1.94309
rclavicle 7.95139e-015 2.26615e-014
rhumerus -32.5055 -0.413804 -86.0382
rradius 34.5004
rwrist 23.1151
rhand -17.7284 -8.56779
rfingers 7.12502
rthumb 8.53243 -38.3754
lclavicle 7.95139e-015 2.26615e-014
lhumerus -25.9716 -11.3026 83.5241
lradius 36.3065
lwrist 12.2111
lhand -30.0276 5.71375
lfingers 7.12502
lthumb -3.34412 35.6673
rfemur -44.7647 -6.57807 17.4175
rtibia 66.2542
rfoot -4.54573 4.90513
rtoes -13.2107
lfemur -23.6529 0.348981 -26.0042
ltibia 32.3399
lfoot -16.19 -0.836969
ltoes -6.49271
110
root 10.8484 16.6079 -1.32297 247.23 -86.51 -233.941
lowerback 0.440453 -1.12854 -6.199
upperback 1.28355 -1.51092 -1.33736
thorax 1.19903 -0.82611 2.08365
lowerneck -20.0832 0.377345 -1.76223
upperneck 35.112 -1.69323 4.76275
head 15.896 -0.6025 1.93802
rclavicle 4.77083e-015 -3.97569e-015
rhumerus -32.8024 -0.95791 -85.5976
rradius 33.6925
rwrist 22.797
rhand -17.5861 -8.73547
rfingers 7.12502
rthumb 8.66973 -38.5374
lclavicle 4.77083e-015 -3.97569e-015
lhumerus -25.3723 -11.5264 83.2709
lradius 37.4999
lwrist 13.2233
lhand -30.3644 5.3504
lfingers 7.12502
lthumb -3.66939 35.2986
rfemur -45.7841 -6.46129 17.6276
rtibia 64.097
rfoot -5.02324 4.46728
rtoes -13.1818
lfemur -22.7219 0.268842 -26.0592
ltibia 31.9002
lfoot -16.4599 -0.936154
ltoes -7.04512
